<svg width="48" height="48" viewBox="0 0 48 48" fill="none" xmlns="http://www.w3.org/2000/svg">
    <rect x="0.5" y="0.5" width="47" height="47" rx="7.5" stroke="#999999"/>
    <path d="M29 14.9998C29.2626 14.7372 29.5744 14.5288 29.9176 14.3867C30.2608 14.2445 30.6286 14.1714 31 14.1714C31.3714 14.1714 31.7392 14.2445 32.0824 14.3867C32.4256 14.5288 32.7374 14.7372 33 14.9998C33.2626 15.2625 33.471 15.5743 33.6131 15.9174C33.7553 16.2606 33.8284 16.6284 33.8284 16.9998C33.8284 17.3712 33.7553 17.739 33.6131 18.0822C33.471 18.4254 33.2626 18.7372 33 18.9998L19.5 32.4998L14 33.9998L15.5 28.4998L29 14.9998Z" stroke="#222A51" stroke-width="2" stroke-linecap="round" stroke-linejoin="round"/>
</svg>
