<svg width="494" height="306" viewBox="0 0 494 306" fill="none" xmlns="http://www.w3.org/2000/svg">
    <path d="M482.966 246.719C437.466 316.719 332.965 276.719 344.466 201.719C336.464 214.719 323.965 276.719 384.465 301.219C447.465 321.719 477.465 270.885 482.966 246.719Z" fill="#262B48"/>
    <path d="M218.965 42.719C227.765 46.719 242.466 33.7192 246.465 29.719C250.465 25.7188 254.965 22.2188 263.465 21.2188C276.465 19.6893 292.131 34.8856 297.965 42.719L354.465 122.219C298.965 162.719 312.965 213.552 320.465 243.719C317.465 162.719 352.965 147.219 364.965 138.719L402.965 192.219C399.632 195.552 393.865 205.219 397.465 217.219C401.965 232.219 434.965 236.719 435.465 211.719C435.865 191.719 419.298 188.385 410.965 189.219C410.965 189.219 404.965 177.719 380.965 130.719C430.465 112.214 477.965 144.052 493.465 162.719C492.465 156.385 483.865 139.419 457.465 122.219C428.965 101.719 388.465 109.385 370.465 114.219C362.798 100.219 342.265 65.919 321.465 36.719C295.465 0.218956 264.465 -8.28104 234.465 7.71896C204.465 23.719 207.965 37.719 218.965 42.719Z" fill="#262B48"/>
    <path d="M372.293 61.9611L364.5 48L354.958 34.3609C352.376 34.207 345.89 32.6863 340.371 41.3918C343.464 31.5317 365.463 14.9481 381.153 37.5231C394.678 61.4612 370.186 74.0777 359.96 72.5822C370.199 71.3904 371.31 64.3545 372.293 61.9611Z" fill="#262B48"/>
    <path d="M277 131.5C286.686 156 248.667 183.5 225 197C242.167 182.474 267.6 149.438 232 133.5C196.997 117.829 87.5848 145.245 34.6566 161.67C167.33 95.0395 267.329 107.041 277 131.5Z" fill="#262B48"/>
    <path d="M36.7495 145.551C37.6424 147.342 38.5699 148.663 39.5319 149.514C39.4069 149.888 39.1685 150.29 38.8168 150.72C38.4878 151.139 38.0398 151.489 37.473 151.772C36.7249 152.145 36.011 152.246 35.3314 152.075C34.6519 151.905 34.1369 151.468 33.7865 150.765L29.107 141.379L20.0609 145.889L23.2484 152.282C24.1413 154.073 25.0688 155.394 26.0308 156.245C25.9058 156.619 25.6674 157.021 25.3157 157.451C24.9866 157.87 24.5387 158.22 23.9719 158.503C23.2237 158.876 22.5099 158.977 21.8303 158.806C21.1507 158.636 20.6357 158.199 20.2853 157.496L11.7741 140.424C10.915 138.701 9.98754 137.38 8.99162 136.461C9.11667 136.087 9.34372 135.691 9.67276 135.272C10.0245 134.842 10.4837 134.486 11.0505 134.203C11.7987 133.83 12.5126 133.729 13.1921 133.9C13.8717 134.071 14.3867 134.507 14.7371 135.21L18.874 143.508L27.9201 138.998L25.2752 133.693C24.4162 131.97 23.4887 130.649 22.4927 129.73C22.6178 129.356 22.8449 128.96 23.1739 128.541C23.5256 128.111 23.9849 127.755 24.5517 127.472C25.2772 127.111 25.9797 127.015 26.6593 127.186C27.3615 127.345 27.8878 127.776 28.2382 128.479L36.7495 145.551Z" fill="#C9383F"/>
    <path d="M57.8312 128.681C59.3823 132.426 59.7781 135.566 59.0187 138.102C58.2495 140.614 56.3436 142.501 53.301 143.761C50.3051 145.002 47.6802 145.02 45.4261 143.815C43.1954 142.6 41.2802 140.061 39.6806 136.2L36.0742 127.493C35.3374 125.714 34.5043 124.332 33.5749 123.346C33.7257 122.982 33.9798 122.602 34.3373 122.207C34.7181 121.803 35.2011 121.479 35.7862 121.237C36.5352 120.927 37.2427 120.881 37.9087 121.098C38.5747 121.316 39.0579 121.788 39.3585 122.513L44.3464 134.555C45.7133 137.855 47.0581 140.109 48.3807 141.316C49.6936 142.499 51.1107 142.776 52.6321 142.146C54.2236 141.487 55.0691 140.218 55.1685 138.34C55.2679 136.461 54.6681 133.954 53.369 130.818L49.6608 121.865C48.924 120.086 48.0909 118.704 47.1615 117.718C47.3357 117.344 47.6015 116.96 47.9589 116.565C48.3164 116.17 48.776 115.856 49.3377 115.624C50.0866 115.314 50.7941 115.267 51.4601 115.485C52.1495 115.693 52.6445 116.16 52.9451 116.885L57.8312 128.681Z" fill="#C9383F"/>
    <path d="M73.7861 134.603C70.9752 135.543 68.6924 135.786 66.9374 135.332C65.1744 134.853 64.0397 133.857 63.5333 132.343C63.2761 131.574 63.2953 130.873 63.591 130.24C63.8786 129.583 64.539 129.082 65.572 128.736C66.0045 128.591 66.3609 128.499 66.6412 128.458C66.6736 128.795 66.7461 129.131 66.8586 129.467C66.939 129.708 67.0595 129.988 67.2201 130.308C67.7741 131.405 68.6282 132.201 69.7824 132.697C70.9365 133.192 72.3064 133.174 73.892 132.644C75.0692 132.25 75.9377 131.612 76.4974 130.73C77.0492 129.824 77.1201 128.759 76.7101 127.534C76.3243 126.38 75.6184 125.548 74.5924 125.037C73.5823 124.493 71.9796 124.014 69.7841 123.6C67.6927 123.178 66.0179 122.763 64.7597 122.356C63.4934 121.925 62.4113 121.325 61.5131 120.557C60.631 119.757 59.9689 118.696 59.5268 117.375C58.8033 115.213 59.0616 113.35 60.3015 111.786C61.5574 110.191 63.4227 108.979 65.8971 108.151C68.2035 107.379 70.1739 107.121 71.8085 107.375C73.443 107.63 74.4894 108.442 74.9476 109.811C75.1646 110.46 75.1493 111.053 74.9015 111.59C74.6698 112.095 74.1255 112.504 73.2687 112.817C73.1806 112.873 73.0165 112.942 72.7762 113.022C72.56 113.094 72.2757 113.163 71.9233 113.227C71.706 112.418 71.3768 111.754 70.9356 111.234C70.4782 110.505 69.8207 110.017 68.9632 109.77C68.0977 109.498 67.0764 109.56 65.8992 109.954C64.9382 110.275 64.1778 110.797 63.6178 111.518C63.0819 112.232 62.9988 113.141 63.3686 114.246C63.6258 115.015 64.023 115.644 64.5603 116.132C65.0976 116.62 65.8632 117.031 66.8569 117.367C67.8507 117.702 69.217 118.033 70.9557 118.359C72.6625 118.67 74.1169 119.025 75.319 119.424C76.5131 119.799 77.6032 120.383 78.5895 121.175C79.5758 121.967 80.294 123.035 80.7441 124.381C81.1862 125.702 81.2398 127.02 80.9048 128.334C80.5859 129.616 79.8262 130.819 78.6258 131.942C77.4414 133.032 75.8281 133.919 73.7861 134.603Z" fill="#C9383F"/>
    <path d="M106.175 118.774C106.781 119.671 107.406 120.296 108.05 120.648C107.654 121.573 106.84 122.231 105.61 122.624C104.862 122.863 104.172 122.911 103.541 122.766C102.934 122.615 102.474 122.256 102.16 121.691L98.5894 116.13L90.4084 118.743L90.7051 123.794C90.7365 124.475 90.8216 125.033 90.9603 125.468C91.1221 125.974 91.3782 126.318 91.7284 126.499C91.3238 126.814 90.94 127.07 90.577 127.265C90.2459 127.477 89.8148 127.668 89.2839 127.838C88.3669 128.131 87.6411 128.19 87.1065 128.015C86.596 127.832 86.2291 127.391 86.0056 126.691C85.8206 126.112 85.7155 125.241 85.6901 124.079L86.0588 100.625C87.2474 99.767 88.5053 99.1259 89.8326 98.7021C91.2806 98.2397 92.303 98.4849 92.8998 99.4379L106.175 118.774ZM97.0808 113.78L89.4673 101.93L90.2392 115.965L97.0808 113.78Z" fill="#C9383F"/>
    <path d="M115.77 119.322C114.973 119.574 114.252 119.562 113.607 119.287C112.963 119.012 112.522 118.5 112.286 117.751L106.55 99.5582C105.971 97.722 105.262 96.2723 104.422 95.209C104.604 94.8594 104.89 94.5035 105.28 94.1413C105.695 93.7715 106.204 93.4914 106.808 93.3009C107.606 93.0496 108.327 93.0613 108.971 93.3362C109.616 93.6112 110.056 94.1231 110.292 94.8721L116.028 113.065C116.63 114.974 117.34 116.424 118.157 117.414C117.975 117.764 117.676 118.124 117.262 118.494C116.871 118.856 116.374 119.132 115.77 119.322Z" fill="#C9383F"/>
    <path d="M126.814 114.827C126.053 115.024 125.337 114.987 124.665 114.715C124.808 113.344 124.603 111.592 124.051 109.458L120.112 94.2269C119.586 92.1912 119.062 90.521 118.542 89.2165C118.638 88.9822 118.882 88.7621 119.274 88.5562C119.69 88.3439 120.131 88.1775 120.597 88.057C121.21 87.8984 121.609 87.8737 121.794 87.9828C122.636 88.7072 125.002 90.6204 128.892 93.7226C132.423 96.5512 135.076 98.7171 136.852 100.22C138.652 101.717 139.974 102.985 140.818 104.022L135.332 87.8179L135.162 87.3124C134.953 86.503 134.969 85.8055 135.21 85.2198C135.475 84.6278 135.967 84.1998 136.683 83.936C137.456 83.6839 138.159 83.6721 138.794 83.9005C138.722 84.9394 138.953 86.489 139.486 88.5493L143.569 104.489C144.133 106.672 144.638 108.32 145.083 109.435C144.956 109.651 144.697 109.862 144.305 110.068C143.944 110.292 143.543 110.461 143.102 110.575C142.587 110.709 142.203 110.742 141.951 110.677C133.355 104.657 127.111 99.5343 123.218 95.3077L128.491 111.449C128.768 112.215 128.718 112.935 128.343 113.607C127.961 114.256 127.451 114.662 126.814 114.827Z" fill="#C9383F"/>
    <path d="M180.653 91.4849C182.54 91.6675 184.057 92.3129 185.204 93.421C186.377 94.5279 187.012 96.0428 187.111 97.9656C187.239 100.47 186.398 102.39 184.589 103.726C182.806 105.06 180.168 105.816 176.677 105.995L172.465 106.21C171.63 106.253 170.935 106.06 170.38 105.632C169.826 105.204 169.528 104.597 169.488 103.813L168.541 85.2933C168.443 83.3705 168.121 81.7889 167.576 80.5484C169.106 79.7092 171.376 79.2126 174.387 79.0587C177.802 78.884 180.421 79.2575 182.244 80.1789C184.067 81.1004 185.035 82.6743 185.149 84.9007C185.229 86.4694 184.868 87.8449 184.066 89.0274C183.288 90.1833 182.151 91.0025 180.653 91.4849ZM173.299 80.8646L173.827 91.1871L175.801 91.0862C177.269 91.0364 178.334 90.5254 178.994 89.5531C179.68 88.5795 179.981 87.2577 179.895 85.5879C179.812 83.9687 179.357 82.749 178.529 81.9289C177.699 81.0835 176.373 80.7074 174.552 80.8005L173.299 80.8646ZM176.398 104.259C178.321 104.161 179.699 103.583 180.533 102.525C181.392 101.467 181.777 100.065 181.688 98.319C181.578 96.1685 181.021 94.7003 180.017 93.9146C179.036 93.1022 177.661 92.7413 175.89 92.8319L173.916 92.9328L174.5 104.356L176.398 104.259Z" fill="#C9383F"/>
    <path d="M197.697 105.798C196.861 105.802 196.176 105.576 195.642 105.123C195.109 104.669 194.84 104.049 194.837 103.264L194.761 84.188C194.753 82.2626 194.506 80.6676 194.02 79.4029C194.297 79.1231 194.676 78.8682 195.157 78.6383C195.662 78.4083 196.232 78.292 196.865 78.2895C197.701 78.2862 198.386 78.5114 198.92 78.9653C199.454 79.4192 199.722 80.0388 199.725 80.8241L199.802 99.8999C199.809 101.901 200.057 103.496 200.543 104.685C200.265 104.965 199.873 105.22 199.368 105.45C198.887 105.68 198.33 105.796 197.697 105.798Z" fill="#C9383F"/>
    <path d="M229.166 102.304C229.331 102.873 229.402 103.348 229.377 103.727C229.325 104.511 228.978 105.148 228.337 105.639C227.697 106.104 226.896 106.305 225.936 106.242C224.571 106.152 223.554 105.59 222.886 104.556C222.218 103.522 221.661 102.152 221.215 100.447L220.302 96.9596C219.996 95.8224 219.538 94.8782 218.927 94.1271C218.342 93.3777 217.405 92.9605 216.116 92.8755L215.471 92.833L215.036 99.4307C214.905 101.428 215.04 103.036 215.442 104.256C215.145 104.516 214.737 104.743 214.216 104.937C213.721 105.133 213.157 105.21 212.526 105.168C211.691 105.113 211.024 104.841 210.523 104.351C210.022 103.861 209.797 103.224 209.849 102.44L211.103 83.4055C211.23 81.4843 211.095 79.8759 210.698 78.5804C210.994 78.3206 211.39 78.0928 211.885 77.897C212.406 77.7028 212.982 77.6265 213.614 77.6681C214.448 77.7231 215.103 77.9947 215.579 78.4831C216.08 78.9731 216.304 79.6099 216.253 80.3935L215.591 91.013L216.478 90.8429C217.895 90.5301 219.118 89.8871 220.147 88.914C221.201 87.9425 222.011 86.828 222.576 85.5705C223.166 84.3146 223.499 83.1179 223.574 81.9803C223.619 81.2978 223.582 80.6988 223.464 80.1832C223.373 79.644 223.248 79.2296 223.089 78.9399C223.842 78.6848 224.534 78.5781 225.166 78.6198C227.467 78.7714 228.535 80.0984 228.37 82.601C228.245 84.4969 227.454 86.2854 225.998 87.9667C224.567 89.6495 222.503 90.9099 219.808 91.7478C221.239 91.9945 222.327 92.4343 223.072 93.0673C223.843 93.702 224.419 94.5905 224.8 95.7327L226.242 99.8645C226.634 100.855 226.957 101.536 227.212 101.909C227.466 102.281 227.795 102.493 228.198 102.545L228.35 102.555C228.602 102.572 228.874 102.488 229.166 102.304Z" fill="#C9383F"/>
    <path d="M249.591 102.776C249.878 102.98 250.077 103.316 250.187 103.784C250.323 104.254 250.368 104.741 250.322 105.246C250.27 105.826 250.124 106.309 249.886 106.695C249.65 107.055 249.33 107.217 248.926 107.18L236.891 106.094C236.059 106.018 235.398 105.73 234.909 105.228C234.42 104.726 234.211 104.084 234.282 103.302L235.892 85.4761C236.065 83.5586 235.969 81.9474 235.603 80.6426C236.254 80.1926 236.889 79.9193 237.509 79.8226C238.155 79.7029 239.059 79.6955 240.22 79.8003L251.195 80.7914C251.472 80.8165 251.663 80.9609 251.766 81.2246C251.87 81.4883 251.903 81.822 251.867 82.2257C251.814 82.806 251.635 83.3875 251.328 83.9703C251.021 84.553 250.67 84.9156 250.275 85.058C247.408 83.5781 244.362 82.6545 241.14 82.2872L240.33 91.2567L248.542 91.9983C248.627 92.4638 248.652 92.8984 248.615 93.3021C248.572 93.7815 248.467 94.2426 248.3 94.6854L240.125 93.9471L239.226 103.901C240.896 104.001 242.758 103.94 244.813 103.718C246.87 103.472 248.463 103.158 249.591 102.776Z" fill="#C9383F"/>
    <path d="M261.816 110.748C258.898 110.225 256.779 109.344 255.457 108.103C254.139 106.837 253.622 105.419 253.903 103.848C254.046 103.05 254.399 102.444 254.962 102.03C255.53 101.592 256.35 101.468 257.422 101.661C257.871 101.741 258.228 101.831 258.493 101.93C258.361 102.24 258.263 102.57 258.2 102.92C258.156 103.169 258.127 103.473 258.114 103.831C258.074 105.059 258.442 106.167 259.217 107.155C259.992 108.144 261.203 108.785 262.848 109.08C264.07 109.299 265.138 109.156 266.052 108.65C266.971 108.12 267.544 107.219 267.772 105.947C267.987 104.751 267.766 103.682 267.112 102.741C266.486 101.779 265.309 100.59 263.581 99.174C261.949 97.8005 260.678 96.6333 259.769 95.6726C258.865 94.687 258.203 93.6418 257.783 92.5371C257.393 91.412 257.321 90.1637 257.566 88.7922C257.968 86.5479 259.089 85.0371 260.926 84.2598C262.794 83.462 265.012 83.2933 267.58 83.7536C269.974 84.1826 271.827 84.9007 273.139 85.908C274.452 86.9152 274.98 88.1296 274.726 89.5509C274.605 90.2242 274.307 90.737 273.832 91.0894C273.387 91.4214 272.713 91.5194 271.811 91.3835C271.706 91.3905 271.53 91.3717 271.28 91.327C271.056 91.2868 270.773 91.2105 270.433 91.098C270.631 90.2841 270.661 89.5431 270.523 88.875C270.471 88.0163 270.128 87.2729 269.494 86.6445C268.865 85.9913 267.939 85.5552 266.717 85.3362C265.72 85.1575 264.803 85.2504 263.965 85.6151C263.153 85.9842 262.644 86.7423 262.438 87.8894C262.295 88.6873 262.342 89.4293 262.58 90.1152C262.817 90.8012 263.291 91.5296 264.002 92.3005C264.714 93.0714 265.754 94.017 267.123 95.1374C268.472 96.2284 269.578 97.2374 270.441 98.1642C271.309 99.0661 271.986 100.101 272.471 101.269C272.957 102.437 273.074 103.719 272.824 105.116C272.578 106.487 271.993 107.669 271.069 108.662C270.174 109.634 268.931 110.325 267.339 110.734C265.777 111.123 263.936 111.128 261.816 110.748Z" fill="#C9383F"/>
</svg>
