<svg width="24" height="24" viewBox="0 0 24 24" fill="none" xmlns="http://www.w3.org/2000/svg">
    <path d="M12.825 9C12.825 8.54437 12.4556 8.175 12 8.175C11.5444 8.175 11.175 8.54437 11.175 9V11.175H9C8.54437 11.175 8.175 11.5444 8.175 12C8.175 12.4556 8.54437 12.825 9 12.825H11.175V15C11.175 15.4556 11.5444 15.825 12 15.825C12.4556 15.825 12.825 15.4556 12.825 15V12.825H15C15.4556 12.825 15.825 12.4556 15.825 12C15.825 11.5444 15.4556 11.175 15 11.175H12.825V9Z" fill="white" stroke="white" stroke-width="0.15"/>
    <path d="M12.0574 1.175H11.9426L11.9369 1.175C9.63325 1.17499 7.82016 1.17498 6.40372 1.36542C4.95068 1.56077 3.79218 1.97003 2.88111 2.88111C1.97003 3.79218 1.56077 4.95068 1.36542 6.40372C1.17498 7.82016 1.17499 9.63323 1.175 11.9369L1.175 11.9426V12.0574L1.175 12.0631C1.17499 14.3668 1.17498 16.1798 1.36542 17.5963L1.43975 17.5863L1.36542 17.5963C1.56077 19.0493 1.97003 20.2079 2.88111 21.1189C3.79218 22.03 4.95068 22.4392 6.40371 22.6346C7.82017 22.825 9.63327 22.825 11.9369 22.825H11.9426H12.0574H12.0631C14.3668 22.825 16.1798 22.825 17.5963 22.6346C19.0493 22.4392 20.2079 22.03 21.1189 21.1189C22.03 20.2079 22.4392 19.0493 22.6346 17.5963C22.825 16.1798 22.825 14.3668 22.825 12.0631V12.0574V11.9426V11.9369C22.825 9.63327 22.825 7.82017 22.6346 6.40372C22.4392 4.95068 22.03 3.79218 21.1189 2.88111C20.2079 1.97003 19.0493 1.56077 17.5963 1.36542L17.5863 1.43975L17.5963 1.36542C16.1798 1.17498 14.3668 1.17499 12.0631 1.175L12.0574 1.175ZM19.9522 4.04783L20.0052 3.9948L19.9522 4.04784C20.5056 4.60124 20.8286 5.35351 20.9993 6.62357C21.1732 7.91739 21.175 9.61962 21.175 12C21.175 14.3803 21.1732 16.0826 20.9993 17.3764C20.8286 18.6465 20.5056 19.3987 19.9522 19.9522C19.3987 20.5056 18.6465 20.8286 17.3764 20.9993C16.0826 21.1732 14.3803 21.175 12 21.175C9.61962 21.175 7.91739 21.1732 6.62357 20.9993C5.35351 20.8286 4.60124 20.5056 4.04784 19.9522L3.9948 20.0052L4.04783 19.9522C3.49442 19.3987 3.17146 18.6465 3.0007 17.3764C2.82675 16.0826 2.825 14.3803 2.825 12C2.825 9.61962 2.82675 7.91739 3.0007 6.62357C3.17146 5.35351 3.49442 4.60124 4.04783 4.04783C4.60124 3.49442 5.35351 3.17146 6.62357 3.0007C7.91739 2.82675 9.61962 2.825 12 2.825C14.3803 2.825 16.0826 2.82675 17.3764 3.0007C18.6465 3.17146 19.3987 3.49442 19.9522 4.04783Z" fill="white" stroke="white" stroke-width="0.15"/>
</svg>
