<svg width="24" height="21" viewBox="0 0 24 21" fill="none" xmlns="http://www.w3.org/2000/svg">
    <path d="M16.048 19.4287V17.4287C16.048 16.3678 15.6265 15.3504 14.8764 14.6003C14.1263 13.8501 13.1088 13.4287 12.048 13.4287H5.04797C3.98707 13.4287 2.96967 13.8501 2.21947 14.6003C1.46937 15.3504 1.04797 16.3678 1.04797 17.4287V19.4287" stroke="#222A51" stroke-width="2" stroke-linecap="round" stroke-linejoin="round"/>
    <path d="M8.54797 9.42871C10.7571 9.42871 12.548 7.63781 12.548 5.42871C12.548 3.21961 10.7571 1.42871 8.54797 1.42871C6.33877 1.42871 4.54797 3.21961 4.54797 5.42871C4.54797 7.63781 6.33877 9.42871 8.54797 9.42871Z" stroke="#222A51" stroke-width="2" stroke-linecap="round" stroke-linejoin="round"/>
    <path d="M19.048 6.42871V12.4287" stroke="#222A51" stroke-width="2" stroke-linecap="round" stroke-linejoin="round"/>
    <path d="M22.048 9.42871H16.048" stroke="#222A51" stroke-width="2" stroke-linecap="round" stroke-linejoin="round"/>
</svg>
