<svg width="46" height="46" viewBox="0 0 46 46" fill="none" xmlns="http://www.w3.org/2000/svg">
    <g filter="url(#filter0_d_1339_131)">
        <path d="M6 8C6 3.58172 9.58172 0 14 0H38C42.4183 0 46 3.58172 46 8V32C46 36.4183 42.4183 40 38 40H14C9.58172 40 6 36.4183 6 32V8Z" fill="#F5F5F5" shape-rendering="crispEdges"/>
        <path d="M35.3333 8H16.6667C15.1939 8 14 9.19391 14 10.6667V29.3333C14 30.8061 15.1939 32 16.6667 32H35.3333C36.8061 32 38 30.8061 38 29.3333V10.6667C38 9.19391 36.8061 8 35.3333 8Z" stroke="#333333" stroke-width="1.33333" stroke-linecap="round" stroke-linejoin="round"/>
        <path d="M22 16L30 24" stroke="#333333" stroke-width="1.33333" stroke-linecap="round" stroke-linejoin="round"/>
        <path d="M30 16L22 24" stroke="#333333" stroke-width="1.33333" stroke-linecap="round" stroke-linejoin="round"/>
    </g>
    <defs>
        <filter id="filter0_d_1339_131" x="0.666667" y="0" width="45.3333" height="45.3333" filterUnits="userSpaceOnUse" color-interpolation-filters="sRGB">
            <feFlood flood-opacity="0" result="BackgroundImageFix"/>
            <feColorMatrix in="SourceAlpha" type="matrix" values="0 0 0 0 0 0 0 0 0 0 0 0 0 0 0 0 0 0 127 0" result="hardAlpha"/>
            <feOffset dx="-2.66667" dy="2.66667"/>
            <feGaussianBlur stdDeviation="1.33333"/>
            <feComposite in2="hardAlpha" operator="out"/>
            <feColorMatrix type="matrix" values="0 0 0 0 0 0 0 0 0 0 0 0 0 0 0 0 0 0 0.25 0"/>
            <feBlend mode="normal" in2="BackgroundImageFix" result="effect1_dropShadow_1339_131"/>
            <feBlend mode="normal" in="SourceGraphic" in2="effect1_dropShadow_1339_131" result="shape"/>
        </filter>
    </defs>
</svg>
