<svg width="30" height="30" viewBox="0 0 30 30" fill="none" xmlns="http://www.w3.org/2000/svg">
    <path d="M4.26 2.1101C4 2.3101 4 2.3201 4 3.7501V5.1901L4.68 5.1401C5.86 5.0501 5.8 5.1001 5.8 4.3001V3.6001H13.15H20.5V6.4001V9.2001H23.25H26V17.5001V25.8001H15.9H5.8V25.2001C5.8 24.5201 5.85 24.5601 4.68 24.4501L4 24.3801V25.7801C4 27.1801 4 27.1901 4.26 27.3901C4.53 27.6001 4.55 27.6001 15.91 27.6001C22.16 27.6001 27.36 27.5701 27.45 27.5401C27.91 27.3601 27.9 27.5201 27.89 17.1301V7.3501L25.22 4.6201L22.55 1.90009H13.54C4.57 1.90009 4.53 1.90009 4.26 2.1101ZM24.88 6.3201L26 7.4001H24.15H22.3V5.6301V3.8701L23.03 4.5601C23.42 4.9401 24.26 5.7301 24.88 6.3201Z" fill="#222A51"/>
    <path d="M13 5.8099C12.09 5.9099 10.7 6.0599 9.89998 6.1399C9.09998 6.2299 7.54998 6.3899 6.44998 6.5099C5.34998 6.6199 3.95998 6.7699 3.34998 6.8299L2.24998 6.9499L2.21998 14.7699C2.19998 22.1499 2.20998 22.5899 2.36998 22.6399C2.46998 22.6599 2.90998 22.7099 3.34998 22.7499C3.78998 22.7799 4.50998 22.8499 4.94998 22.8999C5.38998 22.9599 7.16998 23.1299 8.89998 23.2999C12.13 23.6199 12.3 23.6299 13.85 23.7999C14.35 23.8499 14.78 23.8999 14.83 23.8999C14.87 23.8999 14.9 19.7799 14.9 14.7499C14.9 7.4899 14.87 5.5999 14.78 5.6099C14.71 5.6199 13.91 5.6999 13 5.8099ZM6.40998 9.7899C6.44998 9.8199 6.92998 10.4899 7.48998 11.2699C8.04998 12.0599 8.53998 12.6999 8.57998 12.6999C8.61998 12.6999 9.11998 12.0499 9.68998 11.2599C10.81 9.6899 11.02 9.5199 11.57 9.7499C11.94 9.9099 12.14 10.2299 12.04 10.5199C12.01 10.6299 11.46 11.4499 10.82 12.3399C10.19 13.2199 9.64998 14.0199 9.62998 14.0999C9.60998 14.1799 10.24 15.1699 11.04 16.2899C11.85 17.4099 12.5 18.4199 12.5 18.5199C12.5 18.9299 11.77 19.3699 11.37 19.1899C11.25 19.1399 10.59 18.2999 9.89998 17.3399C9.20998 16.3799 8.60998 15.6099 8.54998 15.6299C8.49998 15.6499 7.89998 16.4299 7.23998 17.3599C6.56998 18.2899 5.92998 19.0999 5.79998 19.1699C5.30998 19.4099 4.60998 18.8799 4.73998 18.3499C4.76998 18.2199 5.42998 17.2299 6.19998 16.1499C6.99998 15.0299 7.56998 14.1399 7.52998 14.0799C7.49998 14.0099 6.92998 13.2199 6.27998 12.3099C5.01998 10.5499 4.96998 10.4199 5.37998 9.9599C5.67998 9.6399 6.17998 9.5499 6.40998 9.7899Z" fill="#222A51"/>
    <path d="M18.7 11.9003V12.8003H19.55H20.4V11.9003V11.0003H19.55H18.7V11.9003Z" fill="#222A51"/>
    <path d="M18.7 15.6999V16.6099L19.53 16.5799L20.35 16.5499L20.38 15.6699L20.41 14.7999H19.55H18.7V15.6999Z" fill="#222A51"/>
    <path d="M22.42 15.6703L22.45 16.5503H23.3H24.15L24.18 15.6703L24.21 14.8003H23.3H22.39L22.42 15.6703Z" fill="#222A51"/>
    <path d="M18.7 19.3V20.21L19.53 20.18L20.35 20.15L20.38 19.27L20.41 18.4H19.55H18.7V19.3Z" fill="#222A51"/>
    <path d="M22.44 18.5299C22.41 18.6099 22.4 18.9999 22.42 19.4099L22.45 20.1499H23.3H24.15L24.18 19.2699L24.21 18.3999H23.35C22.73 18.3999 22.48 18.4399 22.44 18.5299Z" fill="#222A51"/>
    <path d="M18.7 23.0499V23.8999H19.55H20.4V23.0499V22.1999H19.55H18.7V23.0499Z" fill="#222A51"/>
    <path d="M22.4 23.0499V23.8999H23.3H24.2V23.0499V22.1999H23.3H22.4V23.0499Z" fill="#222A51"/>
</svg>
